<svg width="24" height="24" viewBox="0 0 24 24" fill="none" xmlns="http://www.w3.org/2000/svg">
<path d="M4 20H19M12.987 6.92643C12.987 6.92643 12.987 8.28861 14.3492 9.6508C15.7114 11.013 17.0736 11.013 17.0736 11.013M7.59969 17.4901L10.4603 17.0814C10.8729 17.0225 11.2553 16.8313 11.55 16.5365L18.4358 9.6508C19.1881 8.89848 19.1881 7.67874 18.4358 6.92642L17.0736 5.56424C16.3213 4.81192 15.1015 4.81192 14.3492 5.56424L7.46347 12.45C7.16873 12.7447 6.97754 13.1271 6.91859 13.5397L6.50994 16.4003C6.41913 17.036 6.964 17.5809 7.59969 17.4901Z" stroke="#2B2B2B" stroke-width="1.4" stroke-linecap="round"/>
</svg>
