<svg width="24" height="24" viewBox="0 0 24 24" fill="none" xmlns="http://www.w3.org/2000/svg">
<g clip-path="url(#clip0_6104_4026)">
<path d="M2.53785 2.63954C2.21833 2.95906 2.21833 3.47711 2.53785 3.79663L19.9614 21.2202C20.2809 21.5397 20.799 21.5397 21.1185 21.2202C21.438 20.9007 21.438 20.3826 21.1185 20.0631L3.69494 2.63954C3.37542 2.32002 2.85737 2.32002 2.53785 2.63954Z" fill="currentColor"/>
<path d="M0 11.829C0 11.1356 1.38917 9.10231 3.62612 7.27112L4.76046 8.45787C4.69343 8.5119 4.62704 8.56628 4.56133 8.62095C3.56792 9.4475 2.77754 10.3028 2.24963 11.003C1.98441 11.3548 1.80377 11.6431 1.69768 11.8486C1.67976 11.8832 1.66542 11.9128 1.65403 11.9374L1.65608 11.946C1.67507 12.0251 1.70878 12.1311 1.76456 12.2642C1.87729 12.533 2.06129 12.8671 2.32798 13.2497C2.86163 14.0151 3.66361 14.8844 4.67851 15.7031C6.72513 17.3541 9.44174 18.6472 12.2727 18.6472C12.9591 18.6472 13.6315 18.5669 14.2836 18.4211L15.5721 19.7692C14.531 20.0939 13.425 20.2835 12.2727 20.2835C5.64531 20.2835 0 14.2835 0 11.829Z" fill="currentColor"/>
<path d="M7.63636 12.3744C7.63636 12.091 7.66179 11.8136 7.71048 11.5442L12.8959 16.9693C12.6921 16.9966 12.4841 17.0108 12.2727 17.0108C9.71214 17.0108 7.63636 14.935 7.63636 12.3744Z" fill="currentColor"/>
<path d="M11.1553 7.87361L16.7186 13.694C16.8426 13.2758 16.9091 12.8329 16.9091 12.3744C16.9091 9.81383 14.8333 7.73806 12.2727 7.73806C11.8875 7.73806 11.5132 7.78505 11.1553 7.87361Z" fill="currentColor"/>
<path d="M19.5439 15.6431C19.3706 15.7948 19.1918 15.9438 19.008 16.0892L20.143 17.2767C22.5301 15.3508 24 13.0003 24 11.829C24 9.91988 18.6274 3.91988 12 3.91988C10.6278 3.91988 9.30938 4.20048 8.08131 4.65759L9.32975 5.96372C10.193 5.70495 11.0887 5.55624 12 5.55624C14.8272 5.55624 17.4768 6.84606 19.4626 8.4359C20.4472 9.22425 21.2222 10.0505 21.7358 10.7532C21.9931 11.1053 22.1669 11.4021 22.2701 11.626C22.3258 11.7468 22.3496 11.8217 22.3592 11.8558C22.3506 11.9053 22.3248 12.0207 22.249 12.21C22.1447 12.4702 21.9743 12.7991 21.7276 13.1787C21.2342 13.9377 20.4914 14.8139 19.5439 15.6431Z" fill="currentColor"/>
</g>
<defs>
<clipPath id="clip0_6104_4026">
<rect width="24" height="24" fill="currentColor"/>
</clipPath>
</defs>
</svg>
