<svg width="24" height="24" viewBox="0 0 24 24" fill="none" xmlns="http://www.w3.org/2000/svg">
<path fill-rule="evenodd" clip-rule="evenodd" d="M11.0781 0.0970598C11.2267 0.033021 11.3867 0 11.5484 0C11.7101 0 11.87 0.033021 12.0186 0.0970598L19.6502 3.386C20.0797 3.5711 20.4457 3.87885 20.7028 4.2711C20.96 4.66335 21.097 5.12285 21.0968 5.59263V13.824C21.0966 15.3046 20.7072 16.7588 19.9679 18.0394C19.2287 19.3199 18.1658 20.3812 16.8871 21.1158L12.1404 23.842C11.9601 23.9455 11.756 24 11.5484 24C11.3407 24 11.1367 23.9455 10.9564 23.842L6.20965 21.1158C4.9306 20.381 3.86754 19.3193 3.12825 18.0383C2.38896 16.7573 1.99972 15.3026 2 13.8216V5.59263C2.00005 5.12306 2.13713 4.66381 2.39427 4.2718C2.6514 3.87978 3.01728 3.57221 3.44658 3.3872L11.0781 0.0970598ZM15.9729 10.4487C16.1903 10.2223 16.3106 9.91925 16.3079 9.60464C16.3052 9.29002 16.1796 8.98907 15.9583 8.7666C15.737 8.54413 15.4377 8.41793 15.1247 8.4152C14.8118 8.41247 14.5103 8.53341 14.2852 8.75198L10.3548 12.7033L8.81158 11.1518C8.58647 10.9332 8.28498 10.8123 7.97204 10.815C7.65909 10.8177 7.35974 10.9439 7.13844 11.1664C6.91715 11.3889 6.79163 11.6898 6.78891 12.0044C6.78619 12.3191 6.90649 12.6222 7.1239 12.8485L9.511 15.2483C9.73482 15.4732 10.0384 15.5996 10.3548 15.5996C10.6713 15.5996 10.9749 15.4732 11.1987 15.2483L15.9729 10.4487Z" fill="#2B2B2B"/>
</svg>
