<svg width="322" height="104" viewBox="0 0 322 104" fill="none" xmlns="http://www.w3.org/2000/svg">
<g opacity="0.8">
<path fill-rule="evenodd" clip-rule="evenodd" d="M49.7983 84.6584C55.6147 90.2061 61.9556 95.4384 65.779 102.656C66.0081 103.085 66.541 103.247 66.9741 103.017C67.4047 102.784 67.5716 102.249 67.3449 101.818C63.4315 94.4318 56.9763 89.0477 51.0242 83.3718C50.6739 83.0344 50.1113 83.0513 49.7738 83.4071C49.4336 83.7606 49.4481 84.321 49.7983 84.6584Z" fill="white"/>
<path fill-rule="evenodd" clip-rule="evenodd" d="M57.1757 75.4629C60.5927 75.4265 63.787 75.9757 66.8132 77.5588C67.2452 77.7852 67.78 77.6157 68.0105 77.1838C68.2384 76.7495 68.0731 76.2138 67.6436 75.9898C64.3532 74.268 60.8879 73.6555 57.1738 73.6942C56.6847 73.6982 56.2883 74.0979 56.2906 74.5878C56.2906 75.075 56.6892 75.4693 57.1757 75.4629Z" fill="white"/>
<path fill-rule="evenodd" clip-rule="evenodd" d="M69.0825 51.9936C72.6025 49.8268 76.3651 49.0484 80.4392 49.719C80.9196 49.7978 81.3781 49.4712 81.4599 48.9882C81.5444 48.5076 81.2209 48.0515 80.7405 47.9727C76.2309 47.2315 72.0631 48.0892 68.1657 50.4882C67.7476 50.744 67.6163 51.292 67.8683 51.7062C68.1226 52.123 68.6671 52.2518 69.0825 51.9936Z" fill="white"/>
<path fill-rule="evenodd" clip-rule="evenodd" d="M43.4105 21.3921C42.3592 21.533 41.3178 21.7678 40.3061 22.106C39.8555 22.2563 38.961 22.6333 38.4063 23.1495C37.8133 23.6976 37.5577 24.3823 37.8336 25.1159C38.2007 26.0897 38.7815 26.5506 39.3967 26.7221C39.9887 26.8878 40.6706 26.7762 41.3593 26.4215C42.6751 25.7433 44.0428 24.1224 44.6553 23.0447C45.7054 22.9733 46.7601 23.0016 47.8051 23.1243C55.5888 24.0388 61.3819 31.5715 62.1276 41.4541C62.3879 44.9135 59.9161 49.4366 56.7482 53.8616C51.8165 60.7522 45.0811 67.3334 43.1719 69.3198C42.7016 69.8113 42.4771 70.1527 42.449 70.2361C42.3049 70.641 42.452 70.9138 42.577 71.0801C42.7602 71.3186 42.9731 71.4352 43.1808 71.4895C43.4629 71.5614 43.7809 71.5257 44.1031 71.3178C44.2798 71.2018 44.4818 71.0003 44.6809 70.7707C44.8173 70.61 44.9409 70.4112 45.0737 70.3278C45.9274 69.7967 46.8076 69.3203 47.687 68.8342C50.6375 67.1947 53.6875 65.9172 56.8498 64.7466C66.8973 61.0263 77.1868 56.7986 88.0479 56.8768C88.5351 56.8802 88.9392 56.4878 88.9458 55.9985C88.9551 55.5115 88.5656 55.1125 88.0756 55.1071C76.9982 55.0259 66.4958 59.294 56.2487 63.0874C53.5591 64.0835 50.9479 65.1556 48.409 66.452C51.6565 63.0291 56.0184 58.1699 59.2696 53.318C62.1613 49.0031 64.143 44.6684 63.8902 41.3056C63.0735 30.4795 56.5509 22.3667 48.0261 21.3669C47.114 21.2603 46.1921 21.2169 45.2733 21.2434C47.043 13.8623 43.0474 6.6299 35.7918 4.33784C35.3263 4.19008 34.8284 4.4501 34.6771 4.91518C34.5285 5.38263 34.7821 5.87889 35.2475 6.02666C41.7856 8.0922 45.293 14.7357 43.4105 21.3921ZM42.2908 23.3843C41.8063 23.4933 41.3274 23.6276 40.8519 23.7842C40.5983 23.8696 40.1291 24.0507 39.763 24.3123C39.678 24.3744 39.567 24.4914 39.5168 24.5466C39.6155 24.7995 39.7171 24.9705 39.8846 25.0166C40.093 25.0754 40.319 24.9734 40.5602 24.8493C41.1661 24.5386 41.7916 23.9653 42.2908 23.3843Z" fill="white"/>
</g>
<g opacity="0.7">
<path fill-rule="evenodd" clip-rule="evenodd" d="M319.605 14.1615C311.159 29.8664 294.288 36.2514 278.618 27.4098C278.096 27.1154 277.435 27.2995 277.14 27.8147C276.846 28.3391 277.03 29.0015 277.551 29.296C294.348 38.7815 312.462 32.0193 321.515 15.1919C321.799 14.6675 321.601 14.005 321.074 13.7197C320.546 13.4437 319.889 13.637 319.605 14.1615Z" fill="white"/>
<path d="M291.805 20.6742C293.549 20.6742 294.964 19.2599 294.964 17.5153C294.964 15.7706 293.549 14.3563 291.805 14.3563C290.06 14.3563 288.646 15.7706 288.646 17.5153C288.646 19.2599 290.06 20.6742 291.805 20.6742Z" fill="white"/>
<path d="M304.882 17.3139C306.592 17.3139 307.979 15.9273 307.979 14.2167C307.979 12.5062 306.592 11.1195 304.882 11.1195C303.171 11.1195 301.785 12.5062 301.785 14.2167C301.785 15.9273 303.171 17.3139 304.882 17.3139Z" fill="white"/>
</g>
</svg>
