<svg viewBox="0 0 363 217" fill="none" xmlns="http://www.w3.org/2000/svg">
<g filter="url(#filter0_f_43_6919)">
<ellipse cx="196.113" cy="62.5606" rx="119.72" ry="13.0247" fill="url(#paint0_linear_43_6919)" fill-opacity="0.8"/>
</g>
<path d="M175.5 56.5239C223.919 56.5239 267.728 60.327 299.407 66.4644C315.255 69.5346 328.017 73.1793 336.792 77.1987C341.183 79.2098 344.521 81.2904 346.747 83.3979C348.973 85.5054 350 87.5525 350 89.5239C350 91.4954 348.973 93.5425 346.747 95.6499C344.521 97.7574 341.183 99.838 336.792 101.849C328.017 105.869 315.255 109.513 299.407 112.583C267.728 118.721 223.919 122.524 175.5 122.524C127.081 122.524 83.2724 118.721 51.5928 112.583C35.7448 109.513 22.9834 105.869 14.208 101.849C9.81733 99.838 6.479 97.7574 4.25293 95.6499C2.02699 93.5425 1 91.4954 1 89.5239C1 87.5525 2.02699 85.5054 4.25293 83.3979C6.479 81.2904 9.81733 79.2098 14.208 77.1987C22.9834 73.1793 35.7448 69.5346 51.5928 66.4644C83.2724 60.327 127.081 56.5239 175.5 56.5239Z" stroke="url(#paint1_linear_43_6919)" stroke-width="2"/>
<rect x="156" y="114.524" width="38.5714" height="18" rx="9" fill="#6A6A6A"/>
<path d="M188.354 123.877C188.549 123.682 188.549 123.366 188.354 123.17L185.172 119.988C184.976 119.793 184.66 119.793 184.464 119.988C184.269 120.184 184.269 120.5 184.464 120.695L187.293 123.524L184.464 126.352C184.269 126.548 184.269 126.864 184.464 127.059C184.66 127.255 184.976 127.255 185.172 127.059L188.354 123.877ZM188 123.024H187V124.024H188V123.024Z" fill="white"/>
<path d="M163.646 123.877C163.451 123.682 163.451 123.366 163.646 123.17L166.828 119.988C167.024 119.793 167.34 119.793 167.536 119.988C167.731 120.184 167.731 120.5 167.536 120.695L164.707 123.524L167.536 126.352C167.731 126.548 167.731 126.864 167.536 127.059C167.34 127.255 167.024 127.255 166.828 127.059L163.646 123.877ZM164 123.024H165V124.024H164V123.024Z" fill="white"/>
<defs>
<filter id="filter0_f_43_6919" x="26.8571" y="-1.14441e-05" width="338.512" height="125.121" filterUnits="userSpaceOnUse" color-interpolation-filters="sRGB">
<feFlood flood-opacity="0" result="BackgroundImageFix"/>
<feBlend mode="normal" in="SourceGraphic" in2="BackgroundImageFix" result="shape"/>
<feGaussianBlur stdDeviation="24.768" result="effect1_foregroundBlur_43_6919"/>
</filter>
<linearGradient id="paint0_linear_43_6919" x1="300.667" y1="62.5607" x2="76.393" y2="62.5606" gradientUnits="userSpaceOnUse">
<stop stop-opacity="0"/>
<stop offset="1" stop-opacity="0.75"/>
</linearGradient>
<linearGradient id="paint1_linear_43_6919" x1="175.5" y1="82.7239" x2="175.5" y2="123.524" gradientUnits="userSpaceOnUse">
<stop stop-opacity="0"/>
<stop offset="1" stop-color="#2363F6"/>
</linearGradient>
</defs>
</svg>
