<svg width="316" height="634" viewBox="0 0 316 634" fill="none" xmlns="http://www.w3.org/2000/svg">
<g opacity="0.4">
<path fill-rule="evenodd" clip-rule="evenodd" d="M71.2275 571.862C74.2918 564.431 76.8719 556.626 82.2145 550.448C82.5313 550.079 82.4898 549.523 82.1179 549.203C81.7449 548.886 81.1859 548.924 80.8658 549.292C75.3991 555.615 72.7188 563.582 69.5843 571.186C69.3967 571.634 69.6162 572.153 70.0702 572.338C70.5228 572.527 71.0399 572.311 71.2275 571.862Z" fill="white"/>
<path fill-rule="evenodd" clip-rule="evenodd" d="M59.9842 568.316C58.7127 565.145 58.0675 561.968 58.447 558.574C58.5015 558.09 58.1498 557.653 57.6637 557.594C57.1764 557.539 56.737 557.887 56.6837 558.369C56.2707 562.059 56.955 565.511 58.3363 568.959C58.5172 569.413 59.0334 569.638 59.4892 569.458C59.9433 569.282 60.1664 568.768 59.9842 568.316Z" fill="white"/>
<path fill-rule="evenodd" clip-rule="evenodd" d="M33.7958 565.719C30.5012 563.223 28.4128 559.998 27.5621 555.958C27.4615 555.481 26.991 555.172 26.5112 555.271C26.0326 555.366 25.7247 555.833 25.8252 556.309C26.7678 560.781 29.0769 564.355 32.7247 567.119C33.1146 567.416 33.6729 567.34 33.9677 566.955C34.2641 566.567 34.187 566.013 33.7958 565.719Z" fill="white"/>
<path fill-rule="evenodd" clip-rule="evenodd" d="M14.5712 600.732C15.0833 601.661 15.6794 602.547 16.3611 603.367C16.6645 603.733 17.3398 604.43 18.0219 604.76C18.7475 605.114 19.4783 605.105 20.0621 604.582C20.8369 603.887 21.0561 603.179 20.9931 602.543C20.9331 601.931 20.5821 601.336 20.0021 600.823C18.8933 599.842 16.887 599.154 15.6607 598.973C15.2138 598.021 14.8581 597.027 14.594 596.009C12.6269 588.422 17.5498 580.294 26.4912 576.019C29.6214 574.524 34.7327 575.189 40.0047 576.539C48.2137 578.64 56.7877 582.534 59.3307 583.594C59.9592 583.855 60.3588 583.94 60.4467 583.936C60.8762 583.924 61.0773 583.688 61.187 583.511C61.3429 583.254 61.3745 583.014 61.3498 582.8C61.3147 582.511 61.1663 582.228 60.8557 582.003C60.6836 581.88 60.4227 581.765 60.1366 581.662C59.9374 581.593 59.7073 581.55 59.5815 581.457C58.7772 580.853 58.0143 580.206 57.2427 579.562C54.6457 577.406 52.3503 575.025 50.1137 572.502C43.0067 564.484 35.339 556.425 31.4778 546.273C31.3045 545.818 30.7924 545.583 30.3339 545.754C29.8766 545.922 29.6458 546.429 29.8182 546.888C33.755 557.243 41.5374 565.486 48.7849 573.663C50.6876 575.809 52.6327 577.855 54.7607 579.752C50.3939 577.965 44.2848 575.659 38.5847 574.386C33.5154 573.254 28.7572 572.977 25.7143 574.43C15.9192 579.113 10.7199 588.131 12.8759 596.439C13.1069 597.328 13.4003 598.203 13.7578 599.05C6.23701 600.074 0.942973 606.418 1.43469 614.011C1.46555 614.498 1.88828 614.868 2.37655 614.841C2.86609 614.81 3.23682 614.394 3.20596 613.907C2.76301 607.064 7.68489 601.389 14.5712 600.732ZM16.8337 601.054C17.1108 601.467 17.4094 601.864 17.7276 602.251C17.8991 602.456 18.2378 602.828 18.6143 603.074C18.7029 603.131 18.8523 603.192 18.9219 603.219C19.1219 603.035 19.2445 602.879 19.2268 602.706C19.206 602.49 19.0291 602.317 18.8261 602.137C18.317 601.685 17.556 601.309 16.8337 601.054Z" fill="white"/>
<path fill-rule="evenodd" clip-rule="evenodd" d="M262.798 544.658C268.614 550.206 274.955 555.438 278.779 562.656C279.008 563.085 279.541 563.247 279.974 563.017C280.404 562.784 280.571 562.249 280.345 561.818C276.431 554.432 269.976 549.048 264.024 543.372C263.674 543.034 263.111 543.051 262.773 543.407C262.433 543.761 262.448 544.321 262.798 544.658Z" fill="white"/>
<path fill-rule="evenodd" clip-rule="evenodd" d="M270.175 535.463C273.592 535.427 276.787 535.976 279.813 537.559C280.245 537.785 280.78 537.616 281.01 537.184C281.238 536.75 281.073 536.214 280.643 535.99C277.353 534.268 273.888 533.656 270.173 533.694C269.684 533.698 269.288 534.098 269.29 534.588C269.29 535.075 269.689 535.469 270.175 535.463Z" fill="white"/>
<path fill-rule="evenodd" clip-rule="evenodd" d="M282.082 511.994C285.602 509.827 289.365 509.048 293.439 509.719C293.919 509.798 294.378 509.471 294.46 508.988C294.544 508.508 294.221 508.052 293.74 507.973C289.231 507.231 285.063 508.089 281.165 510.488C280.747 510.744 280.616 511.292 280.868 511.706C281.122 512.123 281.667 512.252 282.082 511.994Z" fill="white"/>
<path fill-rule="evenodd" clip-rule="evenodd" d="M256.41 481.392C255.359 481.533 254.317 481.768 253.306 482.106C252.855 482.256 251.961 482.633 251.406 483.15C250.813 483.698 250.557 484.382 250.833 485.116C251.2 486.09 251.781 486.551 252.396 486.722C252.988 486.888 253.67 486.776 254.359 486.422C255.675 485.743 257.042 484.122 257.655 483.045C258.705 482.973 259.76 483.002 260.805 483.124C268.588 484.039 274.382 491.572 275.127 501.454C275.387 504.914 272.916 509.437 269.748 513.862C264.816 520.752 258.081 527.333 256.172 529.32C255.701 529.811 255.477 530.153 255.449 530.236C255.305 530.641 255.452 530.914 255.577 531.08C255.76 531.319 255.973 531.435 256.18 531.489C256.463 531.561 256.781 531.526 257.103 531.318C257.279 531.202 257.481 531 257.681 530.771C257.817 530.61 257.941 530.411 258.073 530.328C258.927 529.797 259.807 529.32 260.687 528.834C263.637 527.195 266.687 525.917 269.849 524.747C279.897 521.026 290.186 516.799 301.048 516.877C301.535 516.88 301.939 516.488 301.945 515.998C301.955 515.511 301.565 515.113 301.075 515.107C289.998 515.026 279.495 519.294 269.248 523.087C266.559 524.083 263.947 525.156 261.409 526.452C264.656 523.029 269.018 518.17 272.269 513.318C275.161 509.003 277.143 504.668 276.89 501.306C276.073 490.48 269.551 482.367 261.026 481.367C260.114 481.26 259.192 481.217 258.273 481.243C260.043 473.862 256.047 466.63 248.791 464.338C248.326 464.19 247.828 464.45 247.677 464.915C247.528 465.383 247.782 465.879 248.247 466.027C254.785 468.092 258.293 474.736 256.41 481.392ZM255.29 483.384C254.806 483.493 254.327 483.628 253.852 483.784C253.598 483.87 253.129 484.051 252.763 484.312C252.678 484.374 252.567 484.491 252.516 484.547C252.615 484.8 252.717 484.971 252.884 485.017C253.093 485.075 253.319 484.973 253.56 484.849C254.166 484.539 254.791 483.965 255.29 483.384Z" fill="white"/>
<path fill-rule="evenodd" clip-rule="evenodd" d="M58.6053 248.161C50.1594 263.866 33.2879 270.251 17.6179 261.41C17.0962 261.115 16.4347 261.3 16.1403 261.815C15.8459 262.339 16.0299 263.002 16.5516 263.296C33.3477 272.782 51.4622 266.019 60.5153 249.192C60.7987 248.667 60.6009 248.005 60.0737 247.72C59.5465 247.444 58.8887 247.637 58.6053 248.161Z" fill="white"/>
<path d="M30.8048 254.674C32.5495 254.674 33.9638 253.26 33.9638 251.515C33.9638 249.771 32.5495 248.356 30.8048 248.356C29.0602 248.356 27.6459 249.771 27.6459 251.515C27.6459 253.26 29.0602 254.674 30.8048 254.674Z" fill="white"/>
<path d="M43.882 251.314C45.5925 251.314 46.9792 249.927 46.9792 248.217C46.9792 246.506 45.5925 245.12 43.882 245.12C42.1714 245.12 40.7848 246.506 40.7848 248.217C40.7848 249.927 42.1714 251.314 43.882 251.314Z" fill="white"/>
</g>
<path fill-rule="evenodd" clip-rule="evenodd" d="M119.716 77.6001C113.959 79.2268 107.312 80.8456 100.918 81.2498C95.4525 81.5948 90.1736 81.0589 85.8527 78.779C85.2436 78.458 84.4809 78.6787 84.1515 79.2728C83.8216 79.8664 84.0485 80.6097 84.6576 80.9312C89.3711 83.4177 95.1185 84.068 101.08 83.6912C107.589 83.2802 114.356 81.6506 120.228 80.0004C120.91 81.3457 122.321 82.5999 124.806 83.5253C128.624 84.9469 133.837 84.9293 139.328 84.1282C147.292 82.9669 155.86 80.1977 161.368 78.2299C161.594 78.1497 161.93 78.022 162.342 77.8536C162.468 78.1238 162.608 78.39 162.764 78.6513C164.115 80.9288 166.505 82.7702 168.94 83.4279C184.386 87.5983 202.412 82.6014 217.09 78.5348C217.753 78.3503 218.139 77.6731 217.953 77.0237C217.763 76.3743 217.07 75.997 216.402 76.1815C202.136 80.1345 184.622 85.1221 169.608 81.0697C167.76 80.5705 165.963 79.1553 164.938 77.4269C164.823 77.2341 164.722 77.0369 164.627 76.8367C166.65 75.8595 169.031 74.4971 170.311 73.0388C171.627 71.5438 171.953 69.948 170.808 68.4408C169.824 67.1523 168.333 67.0427 166.781 67.7107C165.109 68.4261 163.387 70.0987 162.829 70.8837C161.785 72.3498 161.453 73.9402 161.644 75.491C161.152 75.6936 160.752 75.8443 160.506 75.9324C155.118 77.8566 146.744 80.5725 138.956 81.7083C133.946 82.4394 129.186 82.5368 125.702 81.24C124.216 80.6865 123.234 80.0406 122.702 79.2909C123.753 78.9845 124.767 78.6831 125.736 78.3954C127.651 77.8262 131.64 76.8842 134.489 75.2052C136.755 73.8702 138.292 72.0542 138.203 69.7777C138.157 68.6082 137.462 67.8276 136.357 67.3901C134.706 66.7368 131.85 67.0529 130.786 67.2732C127.56 67.9397 123.255 70.6987 121.125 73.8076C120.275 75.0481 119.769 76.3459 119.716 77.6001ZM122.365 76.8358C123.277 76.5686 124.157 76.3063 125.004 76.0547C126.792 75.5233 130.529 74.6791 133.19 73.1112C134.599 72.2813 135.75 71.2869 135.694 69.8712C135.689 69.7611 135.577 69.7298 135.479 69.6847C135.325 69.6157 135.15 69.5683 134.963 69.5311C133.699 69.2795 132.002 69.5227 131.307 69.6666C128.6 70.226 125 72.5578 123.213 75.1665C122.835 75.7176 122.535 76.2789 122.365 76.8358ZM164.125 74.3645C165.305 73.7729 166.54 73.0574 167.514 72.2788C168.031 71.8653 168.468 71.4401 168.744 70.9987C168.975 70.6336 169.066 70.2597 168.79 69.8986C168.679 69.7523 168.513 69.7493 168.343 69.7767C168.162 69.8061 167.976 69.8687 167.79 69.9495C166.565 70.475 165.3 71.7029 164.893 72.2788C164.416 72.9468 164.18 73.6535 164.125 74.3645Z" fill="white"/>
<path fill-rule="evenodd" clip-rule="evenodd" d="M27.0338 27.9959C24.4557 27.2621 21.7565 26.892 19.1381 26.5529C18.5742 26.4818 18.0506 26.8785 18.0103 27.4374C17.9297 27.9967 18.3328 28.5082 18.8565 28.5792C21.3943 28.9057 24.0124 29.255 26.4697 29.9613C26.9934 30.1145 27.5576 29.7991 27.7187 29.2566C27.8798 28.7145 27.5575 28.1495 27.0338 27.9959Z" fill="white"/>
<path fill-rule="evenodd" clip-rule="evenodd" d="M34.8484 17.5934C30.6992 13.2993 26.0264 9.55797 21.9578 5.14867C21.5953 4.73687 20.9507 4.71481 20.5479 5.09924C20.1451 5.48408 20.105 6.13119 20.5078 6.54299C24.5764 10.965 29.2492 14.7186 33.3983 19.0253C33.8012 19.4273 34.4455 19.433 34.8484 19.0376C35.2109 18.6425 35.2512 17.9954 34.8484 17.5934Z" fill="white"/>
<path fill-rule="evenodd" clip-rule="evenodd" d="M42.6235 1.0768C42.7444 3.53453 42.865 5.99226 42.9858 8.45041C42.9858 9.01336 43.4695 9.44804 44.0334 9.42067C44.5974 9.39289 45 8.91368 45 8.35032C44.8791 5.8885 44.7585 3.42708 44.6377 0.965673C44.5974 0.402714 44.1139 -0.0291052 43.5499 0.00153479C43.0263 0.0321748 42.5832 0.514245 42.6235 1.0768Z" fill="white"/>
</svg>
